# xmcd CD database file
# 
# Track frame offsets:
# 	150
# 	15847
# 	33350
# 	52930
# 	64605
# 	80000
# 	81875
# 	98775
# 	121715
# 
# Disc length: 1975 seconds
# 
# Submitted via: Nero 5.5.10.42
# 
# Revision: 0
# Processed by: cddbd v1.4PL0 Copyright (c) Steve Scherf et al.
#
DISCID=5c07b509
DTITLE=Bo Salling And The Brakes Are All Gone Band - Spitshine
DYEAR=1900
DGENRE=
TTITLE0=Pissin'
TTITLE1=Make Me Blue
TTITLE2=Baby Can I Hold You
TTITLE3=Boo's Song
TTITLE4=Cocain Jane
TTITLE5=Wedding Intro
TTITLE6=Wedding Gown
TTITLE7=Nothing Again
TTITLE8=Jim
EXTD=
EXTT0=
EXTT1=
EXTT2=
EXTT3=
EXTT4=
EXTT5=
EXTT6=
EXTT7=
EXTT8=
PLAYORDER=
